<svg width="90" height="74" viewBox="0 0 90 74" fill="none" xmlns="http://www.w3.org/2000/svg">
<path d="M59.0257 44.9937H56.1801L55.1715 44.0366C58.8238 39.8681 60.8311 34.5459 60.8268 29.0417C60.8268 24.4845 59.4536 20.0296 56.8809 16.2404C54.3082 12.4512 50.6515 9.49793 46.3733 7.75396C42.0951 6.00998 37.3874 5.55368 32.8457 6.44275C28.3039 7.33182 24.132 9.52633 20.8576 12.7488C17.5832 15.9712 15.3533 20.0769 14.4499 24.5465C13.5465 29.0162 14.0101 33.6491 15.7822 37.8594C17.5544 42.0698 20.5553 45.6684 24.4056 48.2002C28.2559 50.7321 32.7827 52.0835 37.4134 52.0835C43.2127 52.0835 48.5437 49.992 52.6501 46.518L53.6226 47.5106V50.311L71.6329 68L77 62.7181L59.0257 44.9937ZM37.4134 44.9937C28.4443 44.9937 21.2041 37.8685 21.2041 29.0417C21.2041 20.215 28.4443 13.0898 37.4134 13.0898C46.3825 13.0898 53.6226 20.215 53.6226 29.0417C53.6226 37.8685 46.3825 44.9937 37.4134 44.9937Z" fill="white"/>
</svg>
